<svg width="123" height="37" viewBox="0 0 123 37" fill="none" xmlns="http://www.w3.org/2000/svg">
<path d="M118.624 37H4.30864C1.93338 37 0 35.0316 0 32.622V4.37155C0 1.961 1.93338 0 4.30864 0H118.624C120.998 0 123 1.961 123 4.37155V32.622C123 35.0316 120.998 37 118.624 37Z" fill="#A6A6A6"/>
<path d="M122.118 32.6229C122.118 34.5802 120.556 36.1656 118.625 36.1656H4.30867C2.37802 36.1656 0.810913 34.5802 0.810913 32.6229V4.37062C0.810913 2.41424 2.37802 0.823242 4.30867 0.823242H118.624C120.556 0.823242 122.117 2.41424 122.117 4.37062L122.118 32.6229Z" fill="#0A0A0A"/>
<path d="M27.4499 18.3002C27.4235 15.319 29.8543 13.8686 29.9655 13.801C28.5888 11.7633 26.455 11.4848 25.7051 11.4626C23.913 11.2712 22.1746 12.5514 21.2616 12.5514C20.3305 12.5514 18.9246 11.4811 17.4095 11.5126C15.4597 11.5431 13.6356 12.6892 12.6352 14.4689C10.5706 18.0977 12.1104 23.4303 14.0885 26.3635C15.0779 27.8 16.2341 29.4039 17.7475 29.3475C19.228 29.2855 19.7811 28.3892 21.5678 28.3892C23.3381 28.3892 23.8574 29.3475 25.4008 29.3114C26.9898 29.2855 27.9902 27.8684 28.945 26.419C30.0885 24.7725 30.5477 23.1509 30.5659 23.0677C30.5285 23.0547 27.48 21.8735 27.4499 18.3002Z" fill="white"/>
<path d="M24.5344 9.53306C25.3307 8.52203 25.8755 7.14656 25.7243 5.75073C24.5717 5.80253 23.1304 6.56011 22.3003 7.54893C21.566 8.42028 20.91 9.84848 21.0795 11.1916C22.3741 11.2896 23.7035 10.5284 24.5344 9.53306Z" fill="white"/>
<path d="M48.8766 29.1412H46.8075L45.674 25.5254H41.7344L40.6547 29.1412H38.6403L42.5435 16.8313H44.9543L48.8766 29.1412ZM45.3324 24.0084L44.3074 20.794C44.1989 20.4656 43.9958 19.6923 43.696 18.475H43.6596C43.5402 18.9986 43.348 19.7719 43.0837 20.794L42.077 24.0084H45.3324Z" fill="white"/>
<path d="M58.9143 24.5937C58.9143 26.1033 58.5125 27.2966 57.7089 28.1726C56.9892 28.9523 56.0953 29.3418 55.0284 29.3418C53.8768 29.3418 53.0495 28.9218 52.5457 28.0819H52.5092V32.7578H50.5667V23.1868C50.5667 22.2378 50.5421 21.2637 50.4948 20.2647H52.2031L52.3115 21.6717H52.348C52.9958 20.6116 53.9788 20.0825 55.2981 20.0825C56.3295 20.0825 57.1905 20.496 57.8793 21.3239C58.5699 22.1527 58.9143 23.2423 58.9143 24.5937ZM56.9354 24.6659C56.9354 23.8019 56.7441 23.0897 56.3596 22.5291C55.9396 21.9445 55.3756 21.6522 54.6685 21.6522C54.1893 21.6522 53.7538 21.815 53.3647 22.136C52.9748 22.4598 52.7197 22.8825 52.6003 23.406C52.5402 23.6502 52.5101 23.85 52.5101 24.0073V25.4873C52.5101 26.1329 52.7051 26.6778 53.0951 27.1227C53.485 27.5676 53.9916 27.7896 54.6148 27.7896C55.3464 27.7896 55.9159 27.5029 56.3231 26.9312C56.7313 26.3586 56.9354 25.6038 56.9354 24.6659Z" fill="white"/>
<path d="M68.9702 24.5937C68.9702 26.1033 68.5684 27.2966 67.7639 28.1726C67.045 28.9523 66.1512 29.3418 65.0843 29.3418C63.9326 29.3418 63.1054 28.9218 62.6024 28.0819H62.566V32.7578H60.6235V23.1868C60.6235 22.2378 60.5989 21.2637 60.5515 20.2647H62.2598L62.3683 21.6717H62.4047C63.0516 20.6116 64.0347 20.0825 65.3549 20.0825C66.3854 20.0825 67.2464 20.496 67.937 21.3239C68.6249 22.1527 68.9702 23.2423 68.9702 24.5937ZM66.9912 24.6659C66.9912 23.8019 66.799 23.0897 66.4145 22.5291C65.9945 21.9445 65.4323 21.6522 64.7244 21.6522C64.2442 21.6522 63.8096 21.815 63.4197 22.136C63.0297 22.4598 62.7755 22.8825 62.6562 23.406C62.597 23.6502 62.566 23.85 62.566 24.0073V25.4873C62.566 26.1329 62.761 26.6778 63.1491 27.1227C63.539 27.5667 64.0456 27.7896 64.6707 27.7896C65.4023 27.7896 65.9717 27.5029 66.379 26.9312C66.7872 26.3586 66.9912 25.6038 66.9912 24.6659Z" fill="white"/>
<path d="M80.2133 25.6891C80.2133 26.7362 79.8552 27.5881 79.1364 28.2458C78.3464 28.9645 77.2467 29.3234 75.8336 29.3234C74.5289 29.3234 73.4829 29.0681 72.6912 28.5566L73.1413 26.9128C73.9941 27.4364 74.9298 27.6991 75.9493 27.6991C76.6809 27.6991 77.2504 27.5307 77.6595 27.1959C78.0667 26.861 78.2699 26.4115 78.2699 25.8509C78.2699 25.3514 78.1023 24.9306 77.7661 24.5892C77.4317 24.2479 76.8732 23.9306 76.0933 23.6374C73.9704 22.8336 72.9098 21.6561 72.9098 20.1076C72.9098 19.0957 73.2816 18.2659 74.0259 17.6203C74.7676 16.9737 75.7571 16.6509 76.9943 16.6509C78.0977 16.6509 79.0143 16.8461 79.7459 17.2355L79.2603 18.8431C78.5769 18.4657 77.8043 18.277 76.9397 18.277C76.2563 18.277 75.7224 18.4482 75.3398 18.7886C75.0163 19.0929 74.8541 19.4638 74.8541 19.9032C74.8541 20.3897 75.0391 20.7921 75.4108 21.1085C75.7343 21.4008 76.3219 21.7171 77.1747 22.0584C78.218 22.4849 78.9842 22.9834 79.4771 23.5551C79.9682 24.1249 80.2133 24.8381 80.2133 25.6891Z" fill="white"/>
<path d="M86.6358 21.7449H84.4947V26.0545C84.4947 27.1506 84.8719 27.6982 85.6281 27.6982C85.9753 27.6982 86.2632 27.6677 86.4909 27.6066L86.5447 29.1042C86.162 29.2494 85.6582 29.3225 85.0341 29.3225C84.2669 29.3225 83.6674 29.0848 83.2346 28.6102C82.8037 28.1348 82.5868 27.3374 82.5868 26.2173V21.743H81.3113V20.263H82.5868V18.6378L84.4947 18.0532V20.263H86.6358V21.7449Z" fill="white"/>
<path d="M96.2963 24.6299C96.2963 25.9942 95.9118 27.1144 95.1447 27.9904C94.3402 28.8923 93.2723 29.3418 91.9412 29.3418C90.6584 29.3418 89.637 28.9098 88.8753 28.0459C88.1136 27.1819 87.7328 26.0914 87.7328 24.7769C87.7328 23.4015 88.1246 22.2748 88.9109 21.3988C89.6953 20.5219 90.754 20.0835 92.0852 20.0835C93.368 20.0835 94.4003 20.5155 95.1793 21.3803C95.9246 22.2193 96.2963 23.3025 96.2963 24.6299ZM94.2809 24.6937C94.2809 23.8751 94.1087 23.173 93.7598 22.5875C93.3525 21.8789 92.7703 21.5256 92.0159 21.5256C91.2351 21.5256 90.642 21.8798 90.2347 22.5875C89.8857 23.1739 89.7135 23.8871 89.7135 24.7307C89.7135 25.5493 89.8857 26.2514 90.2347 26.836C90.6547 27.5445 91.2415 27.8979 91.9986 27.8979C92.7403 27.8979 93.3225 27.5371 93.7425 26.8175C94.1005 26.2209 94.2809 25.5114 94.2809 24.6937Z" fill="white"/>
<path d="M102.61 21.9991C102.418 21.963 102.213 21.9445 101.998 21.9445C101.315 21.9445 100.786 22.2063 100.414 22.7308C100.091 23.1933 99.9289 23.7779 99.9289 24.4837V29.141H97.9873L98.0055 23.0601C98.0055 22.037 97.9809 21.1056 97.9326 20.2657H99.6246L99.6956 21.964H99.7494C99.9544 21.3803 100.278 20.9104 100.721 20.558C101.153 20.2407 101.621 20.0825 102.125 20.0825C102.304 20.0825 102.466 20.0955 102.61 20.1186V21.9991Z" fill="white"/>
<path d="M111.298 24.283C111.298 24.6363 111.275 24.9342 111.227 25.1775H105.399C105.422 26.0544 105.704 26.725 106.245 27.1875C106.736 27.601 107.371 27.8082 108.151 27.8082C109.014 27.8082 109.801 27.6685 110.509 27.3882L110.813 28.7572C109.986 29.1235 109.009 29.3057 107.882 29.3057C106.526 29.3057 105.462 28.9006 104.688 28.0912C103.915 27.2818 103.528 26.195 103.528 24.8315C103.528 23.493 103.888 22.3784 104.608 21.4895C105.363 20.5404 106.382 20.0659 107.665 20.0659C108.925 20.0659 109.879 20.5404 110.527 21.4895C111.04 22.2434 111.298 23.1758 111.298 24.283ZM109.446 23.7715C109.458 23.1869 109.332 22.6818 109.068 22.2554C108.732 21.7069 108.216 21.4331 107.52 21.4331C106.885 21.4331 106.369 21.7004 105.974 22.2369C105.651 22.6633 105.458 23.1748 105.399 23.7705L109.446 23.7715Z" fill="white"/>
<path d="M44.69 9.25829C44.69 10.347 44.3684 11.1666 43.7261 11.7169C43.1311 12.2248 42.2856 12.4791 41.1904 12.4791C40.6474 12.4791 40.1827 12.4551 39.7937 12.407V6.45832C40.3012 6.37507 40.8479 6.33252 41.4383 6.33252C42.4815 6.33252 43.2678 6.56284 43.798 7.02349C44.3921 7.54427 44.69 8.28889 44.69 9.25829ZM43.6832 9.28512C43.6832 8.57934 43.4992 8.03822 43.1311 7.66082C42.763 7.28434 42.2255 7.09564 41.5175 7.09564C41.2169 7.09564 40.9608 7.11599 40.7485 7.15854V11.6809C40.8661 11.6994 41.0811 11.7077 41.3936 11.7077C42.1243 11.7077 42.6883 11.5014 43.0855 11.0889C43.4828 10.6763 43.6832 10.0751 43.6832 9.28512Z" fill="white"/>
<path d="M50.0283 10.209C50.0283 10.8796 49.8397 11.4291 49.4625 11.8601C49.067 12.3032 48.5431 12.5243 47.889 12.5243C47.2585 12.5243 46.7565 12.3125 46.382 11.887C46.0084 11.4624 45.8217 10.9268 45.8217 10.2812C45.8217 9.60592 46.0139 9.05185 46.4002 8.62172C46.7865 8.1916 47.3059 7.97607 47.96 7.97607C48.5905 7.97607 49.0971 8.1879 49.4807 8.61247C49.8451 9.02502 50.0283 9.55782 50.0283 10.209ZM49.0379 10.2405C49.0379 9.8381 48.9522 9.49307 48.7819 9.2054C48.5814 8.8576 48.2962 8.6837 47.9254 8.6837C47.5418 8.6837 47.2503 8.8576 47.0498 9.2054C46.8785 9.49307 46.7938 9.84365 46.7938 10.258C46.7938 10.6604 46.8795 11.0054 47.0498 11.2931C47.2567 11.6409 47.5446 11.8148 47.9163 11.8148C48.2807 11.8148 48.5668 11.6381 48.7727 11.2839C48.9495 10.9906 49.0379 10.6428 49.0379 10.2405Z" fill="white"/>
<path d="M57.1859 8.06494L55.842 12.4254H54.9673L54.4107 10.5319C54.2694 10.0592 54.1546 9.58934 54.0653 9.12314H54.048C53.9651 9.60229 53.8503 10.0713 53.7027 10.5319L53.1114 12.4254H52.2267L50.963 8.06494H51.9443L52.4299 10.1379C52.5474 10.6281 52.644 11.0952 52.7215 11.5374H52.7388C52.8098 11.1729 52.9274 10.7086 53.0932 10.1471L53.7027 8.06587H54.4808L55.0648 10.1027C55.2061 10.5994 55.3209 11.0777 55.4092 11.5383H55.4357C55.5003 11.0897 55.5978 10.6115 55.7272 10.1027L56.2484 8.06587H57.1859V8.06494Z" fill="white"/>
<path d="M62.1359 12.4254H61.1811V9.92791C61.1811 9.15831 60.8932 8.77351 60.3155 8.77351C60.0322 8.77351 59.8035 8.87896 59.6258 9.09079C59.45 9.30261 59.3607 9.55236 59.3607 9.83819V12.4245H58.4058V9.31094C58.4058 8.92799 58.394 8.51266 58.3712 8.06311H59.2103L59.255 8.74484H59.2814C59.3926 8.53301 59.5584 8.35819 59.7761 8.21851C60.0349 8.05571 60.3246 7.97339 60.6417 7.97339C61.0426 7.97339 61.3761 8.10474 61.6412 8.36836C61.971 8.69119 62.1359 9.17311 62.1359 9.81321V12.4254Z" fill="white"/>
<path d="M64.7691 12.4254H63.8152V6.06421H64.7691V12.4254Z" fill="white"/>
<path d="M70.3907 10.209C70.3907 10.8796 70.2021 11.4291 69.8249 11.8601C69.4295 12.3032 68.9047 12.5243 68.2514 12.5243C67.62 12.5243 67.118 12.3125 66.7444 11.887C66.3709 11.4624 66.1841 10.9268 66.1841 10.2812C66.1841 9.60592 66.3763 9.05185 66.7626 8.62172C67.149 8.1916 67.6683 7.97607 68.3215 7.97607C68.9529 7.97607 69.4586 8.1879 69.8431 8.61247C70.2075 9.02502 70.3907 9.55782 70.3907 10.209ZM69.3994 10.2405C69.3994 9.8381 69.3137 9.49307 69.1434 9.2054C68.9438 8.8576 68.6577 8.6837 68.2878 8.6837C67.9033 8.6837 67.6118 8.8576 67.4123 9.2054C67.241 9.49307 67.1562 9.84365 67.1562 10.258C67.1562 10.6604 67.2419 11.0054 67.4123 11.2931C67.6191 11.6409 67.907 11.8148 68.2787 11.8148C68.6432 11.8148 68.9283 11.6381 69.1343 11.2839C69.3119 10.9906 69.3994 10.6428 69.3994 10.2405Z" fill="white"/>
<path d="M75.0118 12.4253H74.1545L74.0834 11.923H74.057C73.7636 12.3236 73.3454 12.5243 72.8024 12.5243C72.397 12.5243 72.069 12.392 71.822 12.1293C71.5979 11.8907 71.4858 11.5937 71.4858 11.2413C71.4858 10.7085 71.7045 10.3024 72.1446 10.0212C72.5837 9.74005 73.2015 9.60222 73.9969 9.6087V9.5273C73.9969 8.95287 73.6998 8.66612 73.1049 8.66612C72.6812 8.66612 72.3077 8.77435 71.9851 8.98895L71.7911 8.35255C72.1901 8.10187 72.683 7.97607 73.2643 7.97607C74.3868 7.97607 74.9499 8.57732 74.9499 9.77982V11.3856C74.9499 11.8213 74.9708 12.1682 75.0118 12.4253ZM74.0205 10.9268V10.2543C72.9673 10.2358 72.4407 10.5291 72.4407 11.1331C72.4407 11.3606 72.5008 11.5308 72.6238 11.6446C72.7468 11.7584 72.9035 11.8148 73.0903 11.8148C73.2999 11.8148 73.4958 11.7473 73.6743 11.6132C73.8538 11.4781 73.9641 11.307 74.0051 11.097C74.0151 11.0498 74.0205 10.9925 74.0205 10.9268Z" fill="white"/>
<path d="M80.4374 12.4254H79.5901L79.5454 11.7252H79.519C79.2484 12.258 78.7874 12.5244 78.1396 12.5244C77.6221 12.5244 77.1911 12.3181 76.8494 11.9056C76.5078 11.493 76.3374 10.9575 76.3374 10.2998C76.3374 9.59401 76.5224 9.02236 76.8941 8.58576C77.254 8.17876 77.695 7.97526 78.2198 7.97526C78.7965 7.97526 79.2001 8.17228 79.4297 8.56726H79.4479V6.06421H80.4037V11.2507C80.4037 11.6753 80.4146 12.0665 80.4374 12.4254ZM79.4479 10.5865V9.85948C79.4479 9.73368 79.4388 9.63193 79.4215 9.55423C79.3678 9.32113 79.252 9.12503 79.0762 8.96686C78.8985 8.80868 78.6844 8.72913 78.4375 8.72913C78.0813 8.72913 77.8025 8.87251 77.5975 9.16018C77.3943 9.44786 77.2913 9.81508 77.2913 10.2637C77.2913 10.6948 77.3888 11.0444 77.5847 11.3136C77.7915 11.6003 78.0703 11.7437 78.4193 11.7437C78.7327 11.7437 78.9833 11.6244 79.1737 11.3848C79.3577 11.1637 79.4479 10.8973 79.4479 10.5865Z" fill="white"/>
<path d="M88.6037 10.209C88.6037 10.8796 88.4151 11.4291 88.0379 11.8601C87.6425 12.3032 87.1195 12.5243 86.4644 12.5243C85.8348 12.5243 85.3328 12.3125 84.9574 11.887C84.5839 11.4624 84.3971 10.9268 84.3971 10.2812C84.3971 9.60592 84.5893 9.05185 84.9757 8.62172C85.362 8.1916 85.8813 7.97607 86.5364 7.97607C87.166 7.97607 87.6735 8.1879 88.0561 8.61247C88.4206 9.02502 88.6037 9.55782 88.6037 10.209ZM87.6142 10.2405C87.6142 9.8381 87.5286 9.49307 87.3582 9.2054C87.1568 8.8576 86.8726 8.6837 86.5009 8.6837C86.1182 8.6837 85.8266 8.8576 85.6253 9.2054C85.454 9.49307 85.3693 9.84365 85.3693 10.258C85.3693 10.6604 85.4549 11.0054 85.6253 11.2931C85.8321 11.6409 86.12 11.8148 86.4917 11.8148C86.8562 11.8148 87.1432 11.6381 87.3491 11.2839C87.5249 10.9906 87.6142 10.6428 87.6142 10.2405Z" fill="white"/>
<path d="M93.7378 12.4254H92.7839V9.92791C92.7839 9.15831 92.496 8.77351 91.9174 8.77351C91.634 8.77351 91.4054 8.87896 91.2286 9.09079C91.0518 9.30261 90.9635 9.55236 90.9635 9.83819V12.4245H90.0077V9.31094C90.0077 8.92799 89.9968 8.51266 89.974 8.06311H90.8122L90.8569 8.74484H90.8833C90.9954 8.53301 91.1612 8.35819 91.378 8.21851C91.6377 8.05571 91.9265 7.97339 92.2445 7.97339C92.6445 7.97339 92.9779 8.10474 93.2431 8.36836C93.5738 8.69119 93.7378 9.17311 93.7378 9.81321V12.4254Z" fill="white"/>
<path d="M100.164 8.79108H99.1125V10.9093C99.1125 11.4477 99.2992 11.7169 99.6692 11.7169C99.8404 11.7169 99.9826 11.7021 100.095 11.6715L100.119 12.4069C99.9306 12.4791 99.6828 12.5151 99.3776 12.5151C99.0004 12.5151 98.707 12.3986 98.4947 12.1655C98.2815 11.9324 98.1758 11.5402 98.1758 10.9898V8.79108H97.5481V8.06495H98.1758V7.26575L99.1116 6.979V8.06403H100.163L100.164 8.79108Z" fill="white"/>
<path d="M105.219 12.4254H104.263V9.94643C104.263 9.16481 103.975 8.77353 103.398 8.77353C102.956 8.77353 102.653 9.00016 102.487 9.45341C102.459 9.54868 102.443 9.66523 102.443 9.80213V12.4245H101.489V6.06421H102.443V8.69213H102.461C102.761 8.21391 103.192 7.97526 103.751 7.97526C104.146 7.97526 104.473 8.10661 104.733 8.37023C105.057 8.69861 105.219 9.18701 105.219 9.83266V12.4254Z" fill="white"/>
<path d="M110.433 10.0388C110.433 10.2127 110.42 10.3589 110.398 10.4782H107.534C107.547 10.9093 107.683 11.2376 107.948 11.4652C108.191 11.6687 108.503 11.7704 108.886 11.7704C109.31 11.7704 109.696 11.702 110.044 11.5642L110.193 12.2376C109.786 12.417 109.307 12.5067 108.752 12.5067C108.087 12.5067 107.563 12.3079 107.184 11.9101C106.803 11.5124 106.615 10.9786 106.615 10.3089C106.615 9.65127 106.79 9.10367 107.145 8.66707C107.515 8.20087 108.015 7.96777 108.646 7.96777C109.264 7.96777 109.733 8.20087 110.05 8.66707C110.306 9.03707 110.433 9.49495 110.433 10.0388ZM109.522 9.78817C109.529 9.5005 109.466 9.2526 109.337 9.04355C109.171 8.77437 108.919 8.63932 108.577 8.63932C108.266 8.63932 108.011 8.77067 107.817 9.0343C107.659 9.24427 107.565 9.49495 107.534 9.78817H109.522Z" fill="white"/>
</svg>
