<svg width="124" height="37" viewBox="0 0 124 37" fill="none" xmlns="http://www.w3.org/2000/svg">
<g clip-path="url(#clip0_28_85)">
<path d="M119.405 37H4.59492C2.06904 37 0.00244141 34.9188 0.00244141 32.3751V4.62565C0.00244141 2.08193 2.06904 0.000732422 4.59492 0.000732422H119.405C121.931 0.000732422 123.998 2.08193 123.998 4.62565V32.3751C123.998 34.9188 121.931 37 119.405 37Z" fill="#0A0A0A"/>
<path d="M119.405 0.000732422H4.59492C2.06904 0.000732422 0.00244141 2.08193 0.00244141 4.62565V32.3751C0.00244141 34.9188 2.06904 37 4.59492 37H119.405C121.931 37 123.998 34.9188 123.998 32.3751V4.62565C123.998 2.08193 121.931 0.000732422 119.405 0.000732422ZM119.405 0.740344C121.532 0.740344 123.263 2.4834 123.263 4.62565V32.3751C123.263 34.5174 121.532 36.2604 119.405 36.2604H4.59492C2.4677 36.2604 0.737624 34.5174 0.737624 32.3751V4.62565C0.737624 2.4834 2.4677 0.740344 4.59492 0.740344H119.405Z" fill="#A2A2A1"/>
<path d="M98.2218 27.7501H99.9357V16.186H98.2218V27.7501ZM113.659 20.3519L111.694 25.3653H111.636L109.597 20.3519H107.75L110.809 27.3589L109.065 31.2567H110.852L115.565 20.3523L113.659 20.3519ZM103.939 26.4366C103.379 26.4366 102.595 26.1536 102.595 25.4545C102.595 24.562 103.571 24.2198 104.412 24.2198C105.165 24.2198 105.521 24.3832 105.978 24.6065C105.845 25.6778 104.929 26.4366 103.939 26.4366ZM104.146 20.099C102.906 20.099 101.621 20.6496 101.089 21.8695L102.61 22.5091C102.935 21.8695 103.54 21.6614 104.176 21.6614C105.062 21.6614 105.963 22.1965 105.978 23.149V23.2678C105.667 23.0893 105.002 22.8216 104.191 22.8216C102.55 22.8216 100.881 23.7289 100.881 25.4249C100.881 26.9721 102.226 27.9689 103.732 27.9689C104.884 27.9689 105.521 27.4483 105.918 26.8381H105.978V27.7312H107.633V23.2974C107.633 21.2444 106.11 20.099 104.146 20.099ZM93.5541 21.7596H91.1164V17.796H93.5541C94.8354 17.796 95.5628 18.8641 95.5628 19.7778C95.5628 20.6739 94.8354 21.7596 93.5541 21.7596ZM93.51 16.1862H89.4033V27.7504H91.1165V23.3694H93.5101C95.4095 23.3694 97.2768 21.9848 97.2768 19.7782C97.2768 17.572 95.4095 16.1862 93.51 16.1862ZM71.1163 26.4385C69.9322 26.4385 68.9413 25.4398 68.9413 24.0694C68.9413 22.683 69.9322 21.6701 71.1163 21.6701C72.2853 21.6701 73.2027 22.683 73.2027 24.0694C73.2027 25.4398 72.2853 26.4385 71.1163 26.4385ZM73.0842 20.9993H73.025C72.6404 20.5374 71.9002 20.1202 70.9685 20.1202C69.0148 20.1202 67.2245 21.8491 67.2245 24.0694C67.2245 26.2745 69.0148 27.9882 70.9685 27.9882C71.9002 27.9882 72.6404 27.5709 73.025 27.0943H73.0842V27.6602C73.0842 29.1658 72.2853 29.9701 70.9979 29.9701C69.9477 29.9701 69.2965 29.2102 69.0299 28.5695L67.5357 29.1953C67.9644 30.238 69.1035 31.5201 70.9979 31.5201C73.0107 31.5201 74.7124 30.3277 74.7124 27.4216V20.3585H73.0843L73.0842 20.9993ZM75.8964 27.7498H77.6122V16.1856H75.8964V27.7498ZM80.1427 23.935C80.0986 22.4149 81.3123 21.6402 82.1849 21.6402C82.8659 21.6402 83.4424 21.9831 83.6355 22.4745L80.1427 23.935ZM85.4696 22.6234C85.1442 21.7447 84.1529 20.1202 82.1257 20.1202C80.1129 20.1202 78.441 21.7146 78.441 24.0542C78.441 26.2598 80.0986 27.9883 82.3177 27.9883C84.1081 27.9883 85.1443 26.8859 85.5737 26.2449L84.2418 25.3507C83.7977 26.0065 83.1913 26.4386 82.3177 26.4386C81.4452 26.4386 80.8234 26.0361 80.4244 25.2463L85.6472 23.0708L85.4696 22.6234ZM43.8545 21.3273V22.9963H47.8201C47.7017 23.935 47.391 24.6204 46.9174 25.0974C46.3401 25.6784 45.4375 26.3193 43.8545 26.3193C41.4129 26.3193 39.5041 24.3375 39.5041 21.8787C39.5041 19.4199 41.4129 17.4378 43.8545 17.4378C45.1715 17.4378 46.1331 17.9595 46.8434 18.63L48.0128 17.4525C47.021 16.499 45.7043 15.7688 43.8545 15.7688C40.5098 15.7688 37.6984 18.5108 37.6984 21.8787C37.6984 25.2462 40.5098 27.9883 43.8545 27.9883C45.6595 27.9883 47.0211 27.3922 48.0863 26.2746C49.1814 25.1718 49.5218 23.6221 49.5218 22.3701C49.5218 21.9831 49.492 21.6255 49.4328 21.3273H43.8545ZM54.0308 26.4385C52.8468 26.4385 51.8257 25.455 51.8257 24.0542C51.8257 22.6386 52.8468 21.6702 54.0308 21.6702C55.2144 21.6702 56.2355 22.6386 56.2355 24.0542C56.2355 25.455 55.2144 26.4385 54.0308 26.4385ZM54.0308 20.1202C51.8698 20.1202 50.1092 21.7742 50.1092 24.0542C50.1092 26.3193 51.8698 27.9883 54.0308 27.9883C56.191 27.9883 57.952 26.3193 57.952 24.0542C57.952 21.7742 56.191 20.1202 54.0308 20.1202ZM62.5847 26.4385C61.4015 26.4385 60.3801 25.455 60.3801 24.0542C60.3801 22.6386 61.4016 21.6702 62.5847 21.6702C63.7688 21.6702 64.7895 22.6386 64.7895 24.0542C64.7895 25.455 63.7688 26.4385 62.5847 26.4385ZM62.5847 20.1202C60.4245 20.1202 58.6639 21.7742 58.6639 24.0542C58.6639 26.3193 60.4245 27.9883 62.5847 27.9883C64.7458 27.9883 66.5064 26.3193 66.5064 24.0542C66.5064 21.7742 64.7458 20.1202 62.5847 20.1202Z" fill="white"/>
<path d="M19.0285 17.9677L9.25037 28.4198C9.25073 28.4219 9.25147 28.4237 9.25181 28.4259C9.5517 29.5609 10.5811 30.3966 11.8028 30.3966C12.2911 30.3966 12.7496 30.2636 13.1429 30.0302L13.1741 30.0118L24.1812 23.6154L19.0285 17.9677Z" fill="#EB3131"/>
<path d="M28.9216 16.188L28.9122 16.1815L24.1601 13.4072L18.8063 18.205L24.1787 23.6146L28.9057 20.8679C29.7345 20.4174 30.2971 19.5375 30.2971 18.5229C30.2971 17.5156 29.7421 16.6401 28.9216 16.188Z" fill="#F6B60B"/>
<path d="M9.24898 8.58179C9.1902 8.80008 9.1593 9.02874 9.1593 9.26618V27.736C9.1593 27.973 9.18983 28.2024 9.24935 28.42L19.365 18.2349L9.24898 8.58179Z" fill="#5778C5"/>
<path d="M19.1008 18.5009L24.1622 13.4052L13.1676 6.98564C12.7679 6.74459 12.3015 6.60547 11.8024 6.60547C10.5807 6.60547 9.54994 7.44269 9.25 8.57899C9.24963 8.5801 9.24963 8.58086 9.24963 8.58184L19.1008 18.5009Z" fill="#3BAD49"/>
<path d="M43.533 9.04789H40.8536V9.71563H42.8614C42.8069 10.2605 42.5916 10.6883 42.2285 10.9991C41.8654 11.3099 41.4018 11.4659 40.8536 11.4659C40.2523 11.4659 39.7428 11.2549 39.3252 10.8358C38.9161 10.408 38.7081 9.879 38.7081 9.24165C38.7081 8.60434 38.9161 8.07531 39.3252 7.64754C39.7428 7.22843 40.2523 7.01883 40.8536 7.01883C41.1622 7.01883 41.4564 7.0723 41.7261 7.1894C41.996 7.3064 42.2127 7.46976 42.382 7.67936L42.8915 7.16627C42.6604 6.90173 42.3677 6.69943 42.0045 6.552C41.6414 6.40455 41.2626 6.33379 40.8535 6.33379C40.0513 6.33379 39.3711 6.61415 38.8156 7.17351C38.2602 7.73424 37.9818 8.42511 37.9818 9.24166C37.9818 10.0582 38.2602 10.7506 38.8156 11.31C39.3711 11.8692 40.0513 12.1497 40.8535 12.1497C41.696 12.1497 42.3676 11.8779 42.8843 11.3258C43.3392 10.8662 43.5717 10.2448 43.5717 9.4672C43.5717 9.33566 43.556 9.19533 43.533 9.04789ZM44.571 6.45796V12.0253H47.7986V11.3416H45.2814V9.57553H47.5518V8.90778H45.2814V7.14308H47.7986V6.45794L44.571 6.45796ZM52.3245 7.1431V6.45796H48.5256V7.1431H50.0699V12.0253H50.7803V7.1431H52.3245ZM55.7638 6.45796H55.0534V12.0253H55.7638V6.45796ZM60.4527 7.1431V6.45796H56.6539V7.1431H58.1981V12.0253H58.9085V7.1431H60.4527ZM67.6213 7.18213C67.0731 6.61411 66.4014 6.33374 65.5992 6.33374C64.7955 6.33374 64.1239 6.6141 63.5756 7.17346C63.0274 7.72559 62.7576 8.41785 62.7576 9.24161C62.7576 10.0654 63.0274 10.7577 63.5756 11.3099C64.1239 11.8691 64.7955 12.1496 65.5992 12.1496C66.3942 12.1496 67.073 11.8692 67.6213 11.3099C68.1696 10.7578 68.4393 10.0654 68.4393 9.24161C68.4393 8.42506 68.1695 7.73415 67.6213 7.18213ZM64.0851 7.64749C64.4941 7.22838 64.9964 7.01878 65.5992 7.01878C66.2005 7.01878 66.7028 7.22839 67.1046 7.64749C67.5137 8.05939 67.7145 8.59696 67.7145 9.2416C67.7145 9.8877 67.5137 10.4238 67.1046 10.8358C66.7028 11.2549 66.2005 11.4659 65.5992 11.4659C64.9964 11.4659 64.4941 11.2549 64.0851 10.8358C63.6847 10.4152 63.4838 9.88769 63.4838 9.2416C63.4838 8.59698 63.6847 8.06804 64.0851 7.64749ZM70.1271 8.55804L70.097 7.48411H70.1271L72.9371 12.0252H73.6791V6.45791H72.9687V9.71557L72.9988 10.7895H72.9687L70.2821 6.45791H69.4167V12.0252H70.1271V8.55804Z" fill="white" stroke="white" stroke-width="0.26666" stroke-miterlimit="10"/>
</g>
<defs>
<clipPath id="clip0_28_85">
<rect width="124" height="37" fill="white"/>
</clipPath>
</defs>
</svg>
