<svg width="108" height="34" viewBox="0 0 108 34" fill="none" xmlns="http://www.w3.org/2000/svg">
<path d="M83.8026 33.1129C89.3965 29.8498 93.7461 25.1854 95.9973 19.1583L89.2802 0.249172H93.911L98.18 14.2381H98.373L102.654 0.249172H107.297C107.297 0.249172 100.245 20.0517 99.8804 21.0154C99.5158 21.9792 94.2094 33.1129 94.2094 33.1129C94.2094 33.1129 96.9481 33.1129 83.8026 33.1129Z" fill="#0062E2"/>
<path d="M90.6177 32.7649C90.4999 32.8841 90.381 32.9998 90.2622 33.1125H89.1382C89.4545 32.849 89.771 32.5579 90.0855 32.2395L90.6177 32.7649ZM94.3892 27.7278C93.8253 28.6571 93.247 29.534 92.6558 30.3401L92.0533 29.8977C92.6294 29.1122 93.196 28.2541 93.7505 27.3401L94.3892 27.7278ZM97.3247 22.2053C96.8728 23.1593 96.4068 24.0962 95.9283 25.0022L95.2671 24.6526C95.7399 23.7575 96.2012 22.8313 96.649 21.886L97.3247 22.2053ZM99.8101 16.4807C99.4262 17.4391 99.0265 18.4036 98.6118 19.3616L97.9253 19.0637C98.3369 18.1129 98.7343 17.1557 99.1158 16.2034L99.8101 16.4807ZM101.996 10.6428C101.663 11.5903 101.309 12.5717 100.935 13.5725L100.235 13.3108C100.607 12.3152 100.96 11.3389 101.291 10.3958L101.996 10.6428ZM103.95 4.72583C103.672 5.62053 103.354 6.62022 102.999 7.69653L102.289 7.46216C102.642 6.39043 102.959 5.39502 103.236 4.50415L103.95 4.72583ZM105.266 0.249266C105.266 0.250368 105.266 0.252094 105.265 0.254148C105.264 0.2584 105.262 0.264472 105.259 0.272703C105.255 0.289519 105.249 0.315042 105.24 0.347898C105.222 0.41362 105.195 0.511196 105.16 0.637938C105.089 0.891466 104.984 1.26306 104.847 1.73559L104.129 1.52759C104.265 1.0575 104.369 0.688004 104.439 0.436766C104.459 0.364368 104.476 0.301699 104.491 0.249266H105.266Z" fill="white"/>
<path d="M79.1649 19.1382C77.9912 19.1382 76.9339 18.9292 75.9933 18.5111C75.0607 18.0851 74.3211 17.458 73.7744 16.6299C73.2357 15.8018 72.9664 14.7808 72.9664 13.5668C72.9664 12.5217 73.1594 11.6574 73.5453 10.974C73.9312 10.2907 74.4578 9.74398 75.125 9.33396C75.7923 8.92394 76.544 8.61442 77.3801 8.40539C78.2243 8.18832 79.0966 8.03155 79.997 7.93507C81.0824 7.82252 81.9627 7.72202 82.638 7.63359C83.3134 7.53711 83.8038 7.3924 84.1093 7.19945C84.4228 6.99846 84.5796 6.68893 84.5796 6.27088V6.19852C84.5796 5.29005 84.3103 4.58658 83.7716 4.08813C83.233 3.58967 82.4571 3.34045 81.4442 3.34045C80.3749 3.34045 79.5267 3.5736 78.8996 4.03989C78.2806 4.50619 77.8625 5.0569 77.6454 5.69203L73.5694 5.11318C73.891 3.98763 74.4216 3.047 75.1612 2.29128C75.9009 1.52752 76.8053 0.956709 77.8746 0.578849C78.9438 0.192949 80.1257 0 81.42 0C82.3124 0 83.2008 0.104514 84.0852 0.313543C84.9695 0.522572 85.7775 0.868274 86.5091 1.35065C87.2407 1.82498 87.8276 2.47217 88.2698 3.29221C88.72 4.11225 88.9451 5.13729 88.9451 6.36735V18.7644H84.7484V16.2199H84.6037C84.3384 16.7344 83.9646 17.2168 83.4822 17.667C83.0079 18.1092 82.4089 18.4669 81.6853 18.7403C80.9698 19.0056 80.1297 19.1382 79.1649 19.1382ZM80.2985 15.9304C81.1748 15.9304 81.9346 15.7576 82.5777 15.4119C83.2209 15.0581 83.7153 14.5918 84.061 14.013C84.4148 13.4341 84.5917 12.803 84.5917 12.1197V9.93693C84.455 10.0495 84.2218 10.154 83.8922 10.2505C83.5706 10.3469 83.2088 10.4314 82.8069 10.5037C82.4049 10.5761 82.0069 10.6404 81.613 10.6967C81.219 10.7529 80.8774 10.8012 80.5879 10.8414C79.9367 10.9298 79.3539 11.0745 78.8393 11.2755C78.3248 11.4765 77.9188 11.7579 77.6213 12.1197C77.3239 12.4734 77.1751 12.9317 77.1751 13.4944C77.1751 14.2984 77.4686 14.9054 78.0555 15.3154C78.6424 15.7254 79.39 15.9304 80.2985 15.9304Z" fill="#0062E2"/>
<path d="M50.9346 18.7644L45.7009 0.241171H50.1508L53.4068 13.2653H53.5756L56.904 0.241171H61.3057L64.6341 13.1929H64.815L68.0228 0.241171H72.4847L67.2389 18.7644H62.6925L59.2194 6.24674H58.9662L55.4931 18.7644H50.9346Z" fill="#0062E2"/>
<path d="M36.9795 19.1262C35.1223 19.1262 33.5184 18.7403 32.1678 17.9685C30.8252 17.1886 29.7921 16.0872 29.0685 14.6642C28.345 13.2332 27.9832 11.5489 27.9832 9.61133C27.9832 7.70594 28.345 6.03371 29.0685 4.59462C29.8001 3.1475 30.8212 2.02195 32.1316 1.218C33.4421 0.405998 34.9816 0 36.7504 0C37.892 0 38.9693 0.18491 39.9823 0.55473C41.0033 0.916511 41.9037 1.47928 42.6836 2.24304C43.4714 3.0068 44.0905 3.97959 44.5407 5.16141C44.9909 6.33519 45.216 7.73408 45.216 9.35808V10.6967H30.0333V7.75418H41.0314C41.0234 6.91806 40.8425 6.1744 40.4888 5.5232C40.135 4.86395 39.6406 4.3454 39.0055 3.96754C38.3784 3.58967 37.6468 3.40074 36.8106 3.40074C35.9183 3.40074 35.1344 3.61781 34.4591 4.05195C33.7837 4.47805 33.2572 5.04082 32.8793 5.74026C32.5095 6.43167 32.3205 7.19141 32.3125 8.01949V10.5881C32.3125 11.6654 32.5095 12.59 32.9034 13.3618C33.2974 14.1256 33.8481 14.7124 34.5555 15.1225C35.263 15.5244 36.0911 15.7254 37.0398 15.7254C37.6749 15.7254 38.2497 15.637 38.7643 15.4601C39.2788 15.2752 39.725 15.0059 40.1029 14.6521C40.4807 14.2984 40.7661 13.8602 40.9591 13.3377L45.0351 13.7959C44.7779 14.8732 44.2875 15.8139 43.5639 16.6178C42.8484 17.4137 41.9319 18.0328 40.8144 18.475C39.6969 18.9091 38.4186 19.1262 36.9795 19.1262Z" fill="#0062E2"/>
<path d="M0 18.7644V0.241187H4.17254V3.38868H4.38961C4.77551 2.32746 5.41466 1.49938 6.30705 0.904453C7.19945 0.301484 8.26469 0 9.50279 0C10.757 0 11.8142 0.305504 12.6744 0.916512C13.5427 1.51948 14.1537 2.34354 14.5074 3.38868H14.7004C15.1104 2.35962 15.8018 1.53958 16.7746 0.928572C17.7554 0.309524 18.9171 0 20.2598 0C21.9642 0 23.355 0.538652 24.4323 1.61596C25.5096 2.69326 26.0483 4.265 26.0483 6.33117V18.7644H21.6707V7.0065C21.6707 5.85684 21.3652 5.0167 20.7542 4.48609C20.1432 3.94743 19.3955 3.67811 18.5111 3.67811C17.458 3.67811 16.6339 4.00773 16.039 4.66698C15.4521 5.31818 15.1586 6.16636 15.1586 7.21151V18.7644H10.8776V6.82561C10.8776 5.8689 10.5881 5.10514 10.0093 4.53433C9.43847 3.96351 8.69079 3.67811 7.76624 3.67811C7.13915 3.67811 6.56834 3.8389 6.05381 4.16048C5.53927 4.47403 5.12926 4.92023 4.82375 5.49908C4.51825 6.06989 4.3655 6.73717 4.3655 7.50093V18.7644H0Z" fill="#0062E2"/>
</svg>
